<svg xmlns="http://www.w3.org/2000/svg" xmlns:svg="http://www.w3.org/2000/svg" xmlns:xlink="http://www.w3.org/1999/xlink" id="svg484" width="552.18" height="655.3" version="1.1" viewBox="0 0 552.18 655.3"><defs id="defs142"><style id="style2">.b{fill:url(#a)}.c{fill:url(#b)}.d{fill:url(#c)}.e{mix-blend-mode:overlay}.f{fill:url(#d)}.g{fill:#fff}.h{fill:#6d6e71}.i{fill:url(#e)}.j{fill:url(#f)}.k{fill:url(#g)}.l{fill:#414042}.m{fill:url(#h)}.n{fill:url(#i)}.o{fill:url(#j)}.p{fill:url(#k)}.q{fill:url(#l)}.r{fill:url(#m)}.s{fill:url(#n)}.t{fill:url(#o)}.u{fill:url(#p)}.v{fill:url(#q)}.w{fill:url(#r)}.x{fill:url(#s)}.y{fill:url(#t)}.z{fill:url(#u)}.aa{fill:url(#v)}.ab{fill:url(#w)}.ac{fill:url(#x)}.ad{fill:url(#y)}.ae{fill:url(#z)}.af{fill:url(#aa)}.ag{fill:url(#ab)}.ah{fill:url(#ac)}.ai{fill:url(#ad)}.aj{fill:url(#ae)}.ak{fill:url(#af)}.al{fill:url(#ag)}.am{fill:url(#ah)}.an{fill:url(#ai)}.ao{fill:url(#aj)}.ap{fill:url(#ak)}.aq{fill:url(#al)}.ar{fill:url(#am)}.as{fill:url(#an)}.at{fill:url(#ao)}.au{fill:url(#ap)}.av{fill:url(#aq)}.aw{fill:url(#ar)}.ax{fill:url(#as)}.ay{fill:url(#at)}.az{fill:url(#au)}.ba{fill:url(#av)}.bb{fill:url(#aw)}.bc{fill:url(#ax)}.bd{fill:url(#ay)}.be{fill:url(#az)}.bf{fill:url(#ba)}.bg{fill:url(#bb)}.bh{fill:url(#bc)}.bi{fill:url(#bd)}.bj{fill:url(#be)}.bk{fill:url(#bf)}.bl{fill:url(#bg)}.bm{fill:url(#bh)}.bn{fill:url(#bi)}.bo{fill:url(#bj)}.bp{fill:url(#bk)}.bq{fill:url(#bl)}.br{fill:url(#bm)}.bs{fill:url(#bn)}.bt{fill:url(#bo)}.bu{fill:url(#bp)}.bv{fill:url(#bq)}.bw{fill:url(#br)}.bx{fill:url(#bs)}.by{fill:url(#bt)}.bz{fill:url(#bu)}.ca{fill:url(#bv)}.cb{fill:#a52b00}.cc{fill:#f74c00}</style><linearGradient id="a" x1="317.23" x2="317.23" y1="27.07" y2="709.8" gradientTransform="translate(-41.11,-47.48)" gradientUnits="userSpaceOnUse"><stop id="stop4" offset="0" stop-color="#616161"/><stop id="stop6" offset=".26" stop-color="#707070"/><stop id="stop8" offset=".48" stop-color="#757575"/><stop id="stop10" offset="1" stop-color="#c2c2c2"/></linearGradient><linearGradient id="b" x1="48.7" x2="585.76" y1="376.19" y2="376.19" gradientTransform="matrix(1,0,0,1.01,-41.11,-51.32)" gradientUnits="userSpaceOnUse"><stop id="stop13" offset="0" stop-color="#e3e3e3"/><stop id="stop15" offset=".03" stop-color="#cdcdcd"/><stop id="stop17" offset=".09" stop-color="#aeaeae"/><stop id="stop19" offset=".12" stop-color="#a3a3a3"/><stop id="stop21" offset=".12" stop-color="#b3b3b3"/><stop id="stop23" offset=".12" stop-color="#bdbdbd"/><stop id="stop25" offset=".24" stop-color="#cdcdcd"/><stop id="stop27" offset=".24" stop-color="#e3e3e3"/><stop id="stop29" offset=".48" stop-color="#616161"/><stop id="stop31" offset=".82" stop-color="#757575"/><stop id="stop33" offset="1" stop-color="#c2c2c2"/></linearGradient><linearGradient id="c" x1="176.11" x2="502.48" y1="76.09" y2="553.52" gradientTransform="translate(-41.11,-47.48)" gradientUnits="userSpaceOnUse"><stop id="stop36" offset="0" stop-color="#4d4d4d"/><stop id="stop38" offset=".18" stop-color="#393939"/><stop id="stop40" offset=".52" stop-color="#1a1a1a"/><stop id="stop42" offset=".8" stop-color="#070707"/><stop id="stop44" offset="1"/></linearGradient><linearGradient id="d" x1="151.2" x2="466.64" y1="101.96" y2="563.39" gradientUnits="userSpaceOnUse"><stop id="stop47" offset="0" stop-color="#fff"/><stop id="stop49" offset=".11" stop-color="#f8f8f8"/><stop id="stop51" offset=".26" stop-color="#e6e6e6"/><stop id="stop53" offset=".44" stop-color="#c8c8c8"/><stop id="stop55" offset=".64" stop-color="#9e9e9e"/><stop id="stop57" offset=".86" stop-color="#686868"/><stop id="stop59" offset="1" stop-color="#404040"/></linearGradient><linearGradient id="e" x1="847.19" x2="852.42" y1="1447.2" y2="1484.28" gradientTransform="matrix(-0.42,0.91,-0.91,-0.42,1744.95,-38.23)" gradientUnits="userSpaceOnUse"><stop id="stop62" offset="0" stop-color="#fff"/><stop id="stop64" offset=".22" stop-color="#1a1a1a"/><stop id="stop66" offset=".61" stop-color="#fff"/><stop id="stop68" offset=".75" stop-color="#afafaf"/><stop id="stop70" offset=".98"/></linearGradient><linearGradient id="f" x1="859.2" x2="830.66" y1="1470.93" y2="1446.88" gradientTransform="translate(-41.11,-47.48)" xlink:href="#e"/><linearGradient id="g" x1="849.37" x2="849.37" y1="1443.24" y2="1475.78" gradientTransform="translate(-41.11,-47.48)" xlink:href="#e"/><linearGradient id="h" x1="463.38" x2="476.21" y1="1444.91" y2="1459.41" gradientTransform="rotate(89.83,932.22526,539.90308)" xlink:href="#e"/><linearGradient id="i" x1="463.38" x2="476.22" y1="1444.9" y2="1459.41" gradientTransform="rotate(89.83,932.22526,539.90308)" xlink:href="#e"/><linearGradient id="j" x1="746.54" x2="751.77" y1="1362.59" y2="1399.68" gradientTransform="translate(-41.11,-47.48)" xlink:href="#e"/><linearGradient id="k" x1="758.55" x2="730.01" y1="1386.32" y2="1362.28" gradientTransform="translate(-41.11,-47.48)" xlink:href="#e"/><linearGradient id="l" x1="748.72" x2="748.72" y1="1358.64" y2="1391.18" gradientTransform="translate(-41.11,-47.48)" xlink:href="#e"/><linearGradient id="m" x1="407.37" x2="420.21" y1="1325.94" y2="1340.44" gradientTransform="rotate(89.83,932.22526,539.90308)" xlink:href="#e"/><linearGradient id="n" x1="407.37" x2="420.21" y1="1325.93" y2="1340.45" gradientTransform="rotate(89.83,932.22526,539.90308)" xlink:href="#e"/><linearGradient id="o" x1="690.23" x2="695.46" y1="1239.42" y2="1276.5" gradientTransform="translate(-41.11,-47.48)" xlink:href="#e"/><linearGradient id="p" x1="702.24" x2="673.7" y1="1263.15" y2="1239.1" gradientTransform="translate(-41.11,-47.48)" xlink:href="#e"/><linearGradient id="q" x1="692.41" x2="692.41" y1="1235.47" y2="1268.01" gradientTransform="translate(-41.11,-47.48)" xlink:href="#e"/><linearGradient id="r" x1="407.78" x2="420.61" y1="1190.5" y2="1205" gradientTransform="rotate(89.83,932.22526,539.90308)" xlink:href="#e"/><linearGradient id="s" x1="407.77" x2="420.62" y1="1190.5" y2="1205.01" gradientTransform="rotate(89.83,932.22526,539.90308)" xlink:href="#e"/><linearGradient id="t" x1="635.64" x2="640.87" y1="1120.02" y2="1157.1" gradientTransform="translate(-41.11,-47.48)" xlink:href="#e"/><linearGradient id="u" x1="647.65" x2="619.11" y1="1143.75" y2="1119.7" gradientTransform="translate(-41.11,-47.48)" xlink:href="#e"/><linearGradient id="v" x1="637.82" x2="637.82" y1="1116.06" y2="1148.6" gradientTransform="translate(-41.11,-47.48)" xlink:href="#e"/><linearGradient id="w" x1="408.17" x2="421.01" y1="1059.21" y2="1073.71" gradientTransform="rotate(89.83,932.22526,539.90308)" xlink:href="#e"/><linearGradient id="x" x1="408.17" x2="421.01" y1="1059.2" y2="1073.71" gradientTransform="rotate(89.83,932.22526,539.90308)" xlink:href="#e"/><linearGradient id="y" x1="634.03" x2="639.27" y1="980.95" y2="1018.04" gradientTransform="translate(-41.11,-47.48)" xlink:href="#e"/><linearGradient id="z" x1="646.04" x2="617.51" y1="1004.68" y2="980.64" gradientTransform="translate(-41.11,-47.48)" xlink:href="#e"/><linearGradient id="aa" x1="636.21" x2="636.21" y1="977" y2="1009.54" gradientTransform="translate(-41.11,-47.48)" xlink:href="#e"/><linearGradient id="ab" x1="464.92" x2="477.75" y1="932.23" y2="946.73" gradientTransform="rotate(89.83,932.22526,539.90308)" xlink:href="#e"/><linearGradient id="ac" x1="464.91" x2="477.76" y1="932.23" y2="946.74" gradientTransform="rotate(89.83,932.22526,539.90308)" xlink:href="#e"/><linearGradient id="ad" x1="754.39" x2="759.63" y1="924.41" y2="961.49" gradientTransform="translate(-41.11,-47.48)" xlink:href="#e"/><linearGradient id="ae" x1="766.4" x2="737.86" y1="948.14" y2="924.09" gradientTransform="translate(-41.11,-47.48)" xlink:href="#e"/><linearGradient id="af" x1="756.57" x2="756.57" y1="920.45" y2="953" gradientTransform="translate(-41.11,-47.48)" xlink:href="#e"/><linearGradient id="ag" x1="597.9" x2="610.73" y1="931.25" y2="945.75" gradientTransform="rotate(89.83,932.22526,539.90308)" xlink:href="#e"/><linearGradient id="ah" x1="597.89" x2="610.73" y1="931.24" y2="945.75" gradientTransform="rotate(89.83,932.22526,539.90308)" xlink:href="#e"/><linearGradient id="ai" x1="891.37" x2="896.61" y1="880.02" y2="917.1" gradientTransform="translate(-41.11,-47.48)" xlink:href="#e"/><linearGradient id="aj" x1="903.38" x2="874.84" y1="903.75" y2="879.7" gradientTransform="translate(-41.11,-47.48)" xlink:href="#e"/><linearGradient id="ak" x1="893.56" x2="893.56" y1="876.06" y2="908.61" gradientTransform="translate(-41.11,-47.48)" xlink:href="#e"/><linearGradient id="al" x1="740.89" x2="753.72" y1="948.26" y2="962.76" gradientTransform="rotate(89.83,932.22526,539.90308)" xlink:href="#e"/><linearGradient id="am" x1="740.88" x2="753.72" y1="948.26" y2="962.77" gradientTransform="rotate(89.83,932.22526,539.90308)" xlink:href="#e"/><linearGradient id="an" x1="1045.11" x2="1050.35" y1="873.55" y2="910.64" gradientTransform="translate(-41.11,-47.48)" xlink:href="#e"/><linearGradient id="ao" x1="1057.12" x2="1028.58" y1="897.29" y2="873.24" gradientTransform="translate(-41.11,-47.48)" xlink:href="#e"/><linearGradient id="ap" x1="1047.29" x2="1047.29" y1="869.6" y2="902.14" gradientTransform="translate(-41.11,-47.48)" xlink:href="#e"/><linearGradient id="aq" x1="883.23" x2="896.06" y1="1006.73" y2="1021.23" gradientTransform="rotate(89.83,932.22526,539.90308)" xlink:href="#e"/><linearGradient id="ar" x1="883.22" x2="896.06" y1="1006.73" y2="1021.24" gradientTransform="rotate(89.83,932.22526,539.90308)" xlink:href="#e"/><linearGradient id="as" x1="1155.28" x2="1160.52" y1="902.2" y2="939.29" gradientTransform="translate(-41.11,-47.48)" xlink:href="#e"/><linearGradient id="at" x1="1167.29" x2="1138.75" y1="925.94" y2="901.89" gradientTransform="translate(-41.11,-47.48)" xlink:href="#e"/><linearGradient id="au" x1="1157.47" x2="1157.47" y1="898.25" y2="930.79" gradientTransform="translate(-41.11,-47.48)" xlink:href="#e"/><linearGradient id="av" x1="971.3" x2="984.13" y1="1078.86" y2="1093.36" gradientTransform="rotate(89.83,932.22526,539.90308)" xlink:href="#e"/><linearGradient id="aw" x1="971.29" x2="984.13" y1="1078.86" y2="1093.37" gradientTransform="rotate(89.83,932.22526,539.90308)" xlink:href="#e"/><linearGradient id="ax" x1="1248.27" x2="1253.51" y1="984.29" y2="1021.38" gradientTransform="translate(-41.11,-47.48)" xlink:href="#e"/><linearGradient id="ay" x1="1260.29" x2="1231.75" y1="1008.03" y2="983.98" gradientTransform="translate(-41.11,-47.48)" xlink:href="#e"/><linearGradient id="az" x1="1250.46" x2="1250.46" y1="980.34" y2="1012.88" gradientTransform="translate(-41.11,-47.48)" xlink:href="#e"/><linearGradient id="ba" x1="1021.4" x2="1034.23" y1="1192.34" y2="1206.84" gradientTransform="rotate(89.83,932.22526,539.90308)" xlink:href="#e"/><linearGradient id="bb" x1="1021.4" x2="1034.24" y1="1192.34" y2="1206.85" gradientTransform="rotate(89.83,932.22526,539.90308)" xlink:href="#e"/><linearGradient id="bc" x1="1246.07" x2="1251.3" y1="1100.79" y2="1137.87" gradientTransform="translate(-41.11,-47.48)" xlink:href="#e"/><linearGradient id="bd" x1="1258.08" x2="1229.54" y1="1124.52" y2="1100.47" gradientTransform="translate(-41.11,-47.48)" xlink:href="#e"/><linearGradient id="be" x1="1248.25" x2="1248.25" y1="1096.83" y2="1129.38" gradientTransform="translate(-41.11,-47.48)" xlink:href="#e"/><linearGradient id="bf" x1="970.64" x2="983.47" y1="1297.22" y2="1311.72" gradientTransform="rotate(89.83,932.22526,539.90308)" xlink:href="#e"/><linearGradient id="bg" x1="970.64" x2="983.48" y1="1297.22" y2="1311.73" gradientTransform="rotate(89.83,932.22526,539.90308)" xlink:href="#e"/><linearGradient id="bh" x1="1196.81" x2="1202.04" y1="1205.37" y2="1242.46" gradientTransform="translate(-41.11,-47.48)" xlink:href="#e"/><linearGradient id="bi" x1="1208.82" x2="1180.28" y1="1229.1" y2="1205.06" gradientTransform="translate(-41.11,-47.48)" xlink:href="#e"/><linearGradient id="bj" x1="1198.99" x2="1198.99" y1="1201.42" y2="1233.96" gradientTransform="translate(-41.11,-47.48)" xlink:href="#e"/><linearGradient id="bk" x1="882.13" x2="894.96" y1="1371.59" y2="1386.09" gradientTransform="rotate(89.83,932.22526,539.90308)" xlink:href="#e"/><linearGradient id="bl" x1="882.13" x2="894.97" y1="1371.59" y2="1386.1" gradientTransform="rotate(89.83,932.22526,539.90308)" xlink:href="#e"/><linearGradient id="bm" x1="1089.04" x2="1094.27" y1="1312.38" y2="1349.47" gradientTransform="translate(-41.11,-47.48)" xlink:href="#e"/><linearGradient id="bn" x1="1101.05" x2="1072.51" y1="1336.11" y2="1312.06" gradientTransform="translate(-41.11,-47.48)" xlink:href="#e"/><linearGradient id="bo" x1="1091.22" x2="1091.22" y1="1308.43" y2="1340.97" gradientTransform="translate(-41.11,-47.48)" xlink:href="#e"/><linearGradient id="bp" x1="739.46" x2="752.29" y1="1423.68" y2="1438.18" gradientTransform="rotate(89.83,932.22526,539.90308)" xlink:href="#e"/><linearGradient id="bq" x1="739.46" x2="752.3" y1="1423.67" y2="1438.18" gradientTransform="rotate(89.83,932.22526,539.90308)" xlink:href="#e"/><linearGradient id="br" x1="968.14" x2="973.38" y1="1391.96" y2="1429.05" gradientTransform="translate(-41.11,-47.48)" xlink:href="#e"/><linearGradient id="bs" x1="980.16" x2="951.62" y1="1415.69" y2="1391.64" gradientTransform="translate(-41.11,-47.48)" xlink:href="#e"/><linearGradient id="bt" x1="970.33" x2="970.33" y1="1388.01" y2="1420.55" gradientTransform="translate(-41.11,-47.48)" xlink:href="#e"/><linearGradient id="bu" x1="596.35" x2="609.19" y1="1445.36" y2="1459.86" gradientTransform="rotate(89.83,932.22526,539.90308)" xlink:href="#e"/><linearGradient id="bv" x1="596.35" x2="609.19" y1="1445.36" y2="1459.87" gradientTransform="rotate(89.83,932.22526,539.90308)" xlink:href="#e"/><linearGradient id="linearGradient648" x1="847.19" x2="852.42" y1="1447.2" y2="1484.28" gradientTransform="matrix(-0.42,0.91,-0.91,-0.42,1703.84,-85.71)" gradientUnits="userSpaceOnUse" xlink:href="#e"/></defs><title id="title144">rustsec-logo-horizontal2</title><path id="path146" d="M 134.79,0.04 C 116.19,22.44 68.39,69.11 2.31,56.15 0.81,79.96 0,104.55 0,129.43 c 0,66.19 5.24,128.68 15.56,185.75 15.81,87.4 43.08,159.89 81.05,215.34 44.56,65.13 105,107.08 179.5,124.78 74.54,-17.7 135,-59.65 179.51,-124.78 38,-55.5 65.25,-128 81,-215.38 10.32,-57.07 15.56,-119.57 15.56,-185.75 0,-24.78 -0.8,-49.38 -2.3,-73.26 C 506.74,64.67 472,47.87 450.29,31.83 441.82,25.58 428.1,13.06 417.29,0 Z" class="b" style="isolation:isolate;fill:url(#a)"/><path id="path148" d="M 138.66,9.04 C 120.59,30.82 74.1,76.19 9.83,63.61 8.38,86.76 7.59,110.68 7.59,134.89 c 0,64.35 5.1,125.13 15.13,180.62 15.37,85 41.9,155.49 78.83,209.46 43.34,63.34 102.08,104.16 174.56,121.37 72.5,-17.21 131.24,-58 174.58,-121.37 36.94,-54 63.45,-124.44 78.83,-209.46 10,-55.49 15.13,-116.27 15.13,-180.62 0,-24.11 -0.79,-48 -2.25,-71.26 -42,8.32 -75.73,-8 -96.86,-23.63 -8.23,-6.09 -21.57,-18.26 -32,-31 z" class="c" style="isolation:isolate;fill:url(#b)"/><path id="path150" d="M 149.36,33.83 C 132.68,53.91 89.81,95.76 30.54,84.14 c -1.34,21.38 -2.06,43.38 -2.06,65.74 0,59.35 4.7,115.41 14,166.59 14.18,78.41 38.63,143.39 72.69,193.18 40,58.39 94.15,96 161,111.9 66.86,-15.87 121,-53.51 161,-111.9 34.07,-49.8 58.52,-114.79 72.69,-193.18 9.25,-51.2 14,-107.24 14,-166.59 0,-22.23 -0.72,-44.28 -2,-65.7 -38.71,7.65 -69.85,-7.43 -89.34,-21.81 A 191,191 0 0 1 402.96,33.83 Z" class="d" style="isolation:isolate;fill:url(#c)"/><g id="g154" class="e" style="isolation:isolate" transform="translate(-41.11,-47.48)"><path id="path152" d="M 449.59,103.06 A 185.85,185.85 0 0 1 436.34,88.81 H 191.66 c -16.11,19.39 -57.49,59.79 -114.72,48.57 -1.29,20.62 -2,41.92 -2,63.46 0,57.31 4.53,111.42 13.46,160.83 13.69,75.71 37.3,138.44 70.18,186.5 q 26.21,38.28 60.73,64.12 C 213.47,469.17 234,203.79 449.59,103.06 Z" class="f" style="fill:url(#d)"/></g><path id="path156" d="M 60.21,321.57 C 51.28,272.15 46.75,218.04 46.75,160.73 c 0,-21.54 0.69,-42.84 2,-63.46 57.23,11.22 98.61,-29.18 114.72,-48.57 2.32,0 233.85,-4.87 231.78,-7.37 H 150.55 C 134.44,60.72 93.06,101.12 35.83,89.9 c -1.29,20.62 -2,41.92 -2,63.46 0,57.31 4.53,111.42 13.46,160.83 13.69,75.71 37.3,138.44 70.18,186.5 q 26.21,38.28 60.73,64.12 v 0 C 160.55,549.62 99.32,510.3 60.21,321.57 Z" class="g" style="isolation:isolate"/><path id="path158" d="M 16.64,86.82 A 9,9 0 1 1 28.58,82.37 9,9 0 0 1 16.64,86.82 Z" class="h" style="isolation:isolate"/><path id="path160" d="M 16.81,86.46 A 8.62,8.62 0 1 1 28.23,82.21 8.6,8.6 0 0 1 16.81,86.46 Z" class="i" style="isolation:isolate;fill:url(#linearGradient648)"/><path id="path162" d="m 17.45,85.06 a 7.07,7.07 0 1 1 9.37,-3.49 7.08,7.08 0 0 1 -9.37,3.49 z" class="j" style="isolation:isolate;fill:url(#f)"/><path id="path164" d="m 17.62,84.68 a 6.66,6.66 0 1 1 8.83,-3.28 6.66,6.66 0 0 1 -8.83,3.28 z" class="k" style="isolation:isolate;fill:url(#g)"/><path id="path166" d="m 20.8,83.75 a 44.44,44.44 0 0 0 0.3,-5.1 45.69,45.69 0 0 0 -0.33,-5.1 v 1 -1 a 47.27,47.27 0 0 0 -0.3,5.1 45.69,45.69 0 0 0 0.33,5.1 v -1 z" class="l" style="isolation:isolate"/><path id="path168" d="m 25.89,78.62 a 44.23,44.23 0 0 0 -5.1,-0.3 42.76,42.76 0 0 0 -5.09,0.33 h 0.95 -0.95 a 45.47,45.47 0 0 0 5.09,0.31 46.83,46.83 0 0 0 5.1,-0.34 h -1 z" class="l" style="isolation:isolate"/><path id="path170" d="m 20.63,83.52 a 47.27,47.27 0 0 0 0.3,-5.1 45.38,45.38 0 0 0 -0.33,-5.09 v 1 -1 a 47,47 0 0 0 -0.3,5.09 45.69,45.69 0 0 0 0.33,5.1 v -0.95 z" class="m" style="isolation:isolate;fill:url(#h)"/><path id="path172" d="m 25.69,78.43 a 44.16,44.16 0 0 0 -5.09,-0.3 45.44,45.44 0 0 0 -5.1,0.33 h 1 -1 a 40.72,40.72 0 0 0 10.19,0 h -1 z" class="n" style="isolation:isolate;fill:url(#i)"/><path id="path174" d="m 135.44,30.45 a 9,9 0 1 1 11.94,-4.44 9,9 0 0 1 -11.94,4.44 z" class="h" style="isolation:isolate"/><path id="path176" d="m 135.61,30.1 a 8.62,8.62 0 1 1 11.42,-4.26 8.62,8.62 0 0 1 -11.42,4.26 z" class="o" style="isolation:isolate;fill:url(#j)"/><path id="path178" d="m 136.25,28.7 a 7.07,7.07 0 1 1 9.37,-3.5 7.09,7.09 0 0 1 -9.37,3.5 z" class="p" style="isolation:isolate;fill:url(#k)"/><path id="path180" d="m 136.42,28.32 a 6.66,6.66 0 1 1 8.83,-3.29 6.66,6.66 0 0 1 -8.83,3.29 z" class="q" style="isolation:isolate;fill:url(#l)"/><path id="path182" d="m 139.6,27.39 a 43.19,43.19 0 0 0 0.29,-5.1 44.36,44.36 0 0 0 -0.32,-5.1 v 1 -1 a 47.27,47.27 0 0 0 -0.3,5.1 45.69,45.69 0 0 0 0.33,5.1 v -1 z" class="l" style="isolation:isolate"/><path id="path184" d="m 144.66,22.25 a 47,47 0 0 0 -5.1,-0.3 45.38,45.38 0 0 0 -5.09,0.33 h 0.95 -0.95 a 44.16,44.16 0 0 0 5.09,0.3 45.44,45.44 0 0 0 5.1,-0.33 h -1 z" class="l" style="isolation:isolate"/><path id="path186" d="m 139.43,27.2 a 47.27,47.27 0 0 0 0.3,-5.1 45.44,45.44 0 0 0 -0.33,-5.1 v 1 -1 a 47.27,47.27 0 0 0 -0.3,5.1 45.38,45.38 0 0 0 0.33,5.09 v -1 z" class="r" style="isolation:isolate;fill:url(#m)"/><path id="path188" d="m 144.49,22.06 a 42,42 0 0 0 -10.19,0 h 1 -1 a 45.54,45.54 0 0 0 5.1,0.31 46.77,46.77 0 0 0 5.09,-0.34 h -0.95 z" class="s" style="isolation:isolate;fill:url(#n)"/><path id="path190" d="m 270.89,30.45 a 9,9 0 1 1 11.94,-4.44 9,9 0 0 1 -11.94,4.44 z" class="h" style="isolation:isolate"/><path id="path192" d="m 271.05,30.1 a 8.62,8.62 0 1 1 11.42,-4.26 8.62,8.62 0 0 1 -11.42,4.26 z" class="t" style="isolation:isolate;fill:url(#o)"/><path id="path194" d="m 271.69,28.7 a 7.07,7.07 0 1 1 9.37,-3.5 7.09,7.09 0 0 1 -9.37,3.5 z" class="u" style="isolation:isolate;fill:url(#p)"/><path id="path196" d="m 271.89,28.32 a 6.66,6.66 0 1 1 8.83,-3.29 6.66,6.66 0 0 1 -8.83,3.29 z" class="v" style="isolation:isolate;fill:url(#q)"/><path id="path198" d="m 275.04,27.39 a 43.19,43.19 0 0 0 0.29,-5.1 44.36,44.36 0 0 0 -0.32,-5.1 v 1 -1 a 47.27,47.27 0 0 0 -0.3,5.1 45.69,45.69 0 0 0 0.33,5.1 v -1 z" class="l" style="isolation:isolate"/><path id="path200" d="m 280.1,22.25 a 47,47 0 0 0 -5.1,-0.3 45.38,45.38 0 0 0 -5.09,0.33 h 1 -1 a 44.16,44.16 0 0 0 5.09,0.3 45.44,45.44 0 0 0 5.1,-0.33 h -0.95 z" class="l" style="isolation:isolate"/><path id="path202" d="m 274.89,27.2 a 47.27,47.27 0 0 0 0.3,-5.1 45.44,45.44 0 0 0 -0.33,-5.1 v 1 -1 a 47.27,47.27 0 0 0 -0.3,5.1 45.38,45.38 0 0 0 0.33,5.09 v -1 z" class="w" style="isolation:isolate;fill:url(#r)"/><path id="path204" d="m 279.89,22.06 a 42,42 0 0 0 -10.19,0 h 0.95 -0.95 a 45.54,45.54 0 0 0 5.1,0.31 46.77,46.77 0 0 0 5.09,-0.34 h -1 z" class="x" style="isolation:isolate;fill:url(#s)"/><path id="path206" d="m 402.18,30.45 a 9,9 0 1 1 11.93,-4.44 9,9 0 0 1 -11.93,4.44 z" class="h" style="isolation:isolate"/><path id="path208" d="m 402.34,30.1 a 8.62,8.62 0 1 1 11.42,-4.26 8.6,8.6 0 0 1 -11.42,4.26 z" class="y" style="isolation:isolate;fill:url(#t)"/><path id="path210" d="m 402.98,28.7 a 7.08,7.08 0 1 1 9.37,-3.5 7.09,7.09 0 0 1 -9.37,3.5 z" class="z" style="isolation:isolate;fill:url(#u)"/><path id="path212" d="m 403.16,28.32 a 6.66,6.66 0 1 1 8.82,-3.29 6.65,6.65 0 0 1 -8.82,3.29 z" class="aa" style="isolation:isolate;fill:url(#v)"/><path id="path214" d="m 406.33,27.39 a 44.44,44.44 0 0 0 0.3,-5.1 45.69,45.69 0 0 0 -0.33,-5.1 v 1 -1 a 45.77,45.77 0 0 0 -0.31,5.1 47.09,47.09 0 0 0 0.34,5.1 v -1 z" class="l" style="isolation:isolate"/><path id="path216" d="m 411.39,22.25 a 47,47 0 0 0 -5.09,-0.3 45.44,45.44 0 0 0 -5.1,0.33 h 1 -1 a 44.44,44.44 0 0 0 5.1,0.3 45.38,45.38 0 0 0 5.09,-0.33 h -0.95 z" class="l" style="isolation:isolate"/><path id="path218" d="m 406.16,27.2 a 44.44,44.44 0 0 0 0.3,-5.1 42.82,42.82 0 0 0 -0.33,-5.1 v 1 -1 a 45.86,45.86 0 0 0 -0.29,5.1 42.76,42.76 0 0 0 0.33,5.09 v -1 z" class="ab" style="isolation:isolate;fill:url(#w)"/><path id="path220" d="m 411.23,22.06 a 42.11,42.11 0 0 0 -10.2,0 h 1 -1 a 45.77,45.77 0 0 0 5.1,0.31 47.09,47.09 0 0 0 5.1,-0.34 h -1 z" class="ac" style="isolation:isolate;fill:url(#x)"/><path id="path222" d="m 529.33,86.82 a 9,9 0 1 1 11.93,-4.45 9,9 0 0 1 -11.93,4.45 z" class="h" style="isolation:isolate"/><path id="path224" d="m 529.49,86.46 a 8.62,8.62 0 1 1 11.4,-4.25 8.6,8.6 0 0 1 -11.4,4.25 z" class="ad" style="isolation:isolate;fill:url(#y)"/><path id="path226" d="m 530.13,85.06 a 7.07,7.07 0 1 1 9.37,-3.49 7.08,7.08 0 0 1 -9.37,3.49 z" class="ae" style="isolation:isolate;fill:url(#z)"/><path id="path228" d="m 530.31,84.68 a 6.66,6.66 0 1 1 8.82,-3.28 6.65,6.65 0 0 1 -8.82,3.28 z" class="af" style="isolation:isolate;fill:url(#aa)"/><path id="path230" d="m 533.48,83.75 a 44.44,44.44 0 0 0 0.3,-5.1 45.69,45.69 0 0 0 -0.33,-5.1 v 1 -1 a 47.27,47.27 0 0 0 -0.3,5.1 45.69,45.69 0 0 0 0.33,5.1 v -1 z" class="l" style="isolation:isolate"/><path id="path232" d="m 538.54,78.62 a 44.23,44.23 0 0 0 -5.1,-0.3 42.76,42.76 0 0 0 -5.09,0.33 h 0.95 -0.95 a 45.47,45.47 0 0 0 5.09,0.31 46.83,46.83 0 0 0 5.1,-0.34 h -0.95 z" class="l" style="isolation:isolate"/><path id="path234" d="m 533.31,83.52 a 47.27,47.27 0 0 0 0.3,-5.1 45.38,45.38 0 0 0 -0.33,-5.09 v 1 -1 a 45.56,45.56 0 0 0 -0.29,5.09 44.36,44.36 0 0 0 0.32,5.1 v -0.95 z" class="ag" style="isolation:isolate;fill:url(#ab)"/><path id="path236" d="m 538.37,78.43 a 44.16,44.16 0 0 0 -5.09,-0.3 45.44,45.44 0 0 0 -5.1,0.33 h 1 -1 a 40.72,40.72 0 0 0 10.19,0 h -1 z" class="ah" style="isolation:isolate;fill:url(#ac)"/><path id="path238" d="m 530.71,219.79 a 9,9 0 1 1 11.93,-4.44 9,9 0 0 1 -11.93,4.44 z" class="h" style="isolation:isolate"/><path id="path240" d="m 530.89,219.44 a 8.62,8.62 0 1 1 11.42,-4.26 8.6,8.6 0 0 1 -11.42,4.26 z" class="ai" style="isolation:isolate;fill:url(#ad)"/><path id="path242" d="m 531.51,218.04 a 7.08,7.08 0 1 1 9.38,-3.52 7.09,7.09 0 0 1 -9.38,3.52 z" class="aj" style="isolation:isolate;fill:url(#ae)"/><path id="path244" d="m 531.69,217.66 a 6.66,6.66 0 1 1 8.82,-3.29 6.65,6.65 0 0 1 -8.82,3.29 z" class="ak" style="isolation:isolate;fill:url(#af)"/><path id="path246" d="m 534.89,216.73 a 44.44,44.44 0 0 0 0.3,-5.1 45.44,45.44 0 0 0 -0.33,-5.1 v 1 -1 a 45.54,45.54 0 0 0 -0.31,5.1 47.09,47.09 0 0 0 0.34,5.1 v -1 z" class="l" style="isolation:isolate"/><path id="path248" d="m 539.89,211.59 a 47,47 0 0 0 -5.09,-0.3 45.44,45.44 0 0 0 -5.1,0.33 h 1 -1 a 44.44,44.44 0 0 0 5.1,0.3 45.38,45.38 0 0 0 5.09,-0.33 h -0.95 z" class="l" style="isolation:isolate"/><path id="path250" d="m 534.69,216.52 a 44.51,44.51 0 0 0 0.3,-5.11 42.76,42.76 0 0 0 -0.33,-5.09 v 1 -1 a 45.79,45.79 0 0 0 -0.29,5.09 42.82,42.82 0 0 0 0.33,5.1 v -0.95 z" class="al" style="isolation:isolate;fill:url(#ag)"/><path id="path252" d="m 539.76,211.4 a 45.86,45.86 0 0 0 -5.1,-0.29 47.18,47.18 0 0 0 -5.1,0.32 h 1 -1 a 44.44,44.44 0 0 0 5.1,0.3 45.69,45.69 0 0 0 5.1,-0.33 h -1 z" class="am" style="isolation:isolate;fill:url(#ah)"/><path id="path254" d="m 514.12,362.83 a 9,9 0 1 1 11.94,-4.44 9,9 0 0 1 -11.94,4.44 z" class="h" style="isolation:isolate"/><path id="path256" d="m 514.28,362.52 a 8.62,8.62 0 1 1 11.43,-4.26 8.62,8.62 0 0 1 -11.43,4.26 z" class="an" style="isolation:isolate;fill:url(#ai)"/><path id="path258" d="m 514.89,361.08 a 7.07,7.07 0 1 1 9.37,-3.49 7.09,7.09 0 0 1 -9.37,3.49 z" class="ao" style="isolation:isolate;fill:url(#aj)"/><path id="path260" d="m 515.1,360.7 a 6.66,6.66 0 1 1 8.82,-3.29 6.66,6.66 0 0 1 -8.82,3.29 z" class="ap" style="isolation:isolate;fill:url(#ak)"/><path id="path262" d="m 518.27,359.77 a 44.44,44.44 0 0 0 0.3,-5.1 43,43 0 0 0 -0.33,-5.1 v 0.95 -0.95 a 44.44,44.44 0 0 0 -0.3,5.1 45.69,45.69 0 0 0 0.33,5.1 v -1 z" class="l" style="isolation:isolate"/><path id="path264" d="m 523.34,354.64 a 42,42 0 0 0 -10.19,0 h 1 -1 a 44.16,44.16 0 0 0 5.09,0.3 45.44,45.44 0 0 0 5.1,-0.33 h -1 z" class="l" style="isolation:isolate"/><path id="path266" d="m 518.11,359.58 a 47.27,47.27 0 0 0 0.3,-5.1 44.05,44.05 0 0 0 -0.34,-5.1 v 1 -1 a 44.44,44.44 0 0 0 -0.3,5.1 45.69,45.69 0 0 0 0.33,5.1 v -1 z" class="aq" style="isolation:isolate;fill:url(#al)"/><path id="path268" d="m 523.17,354.44 a 42,42 0 0 0 -10.19,0 h 0.91 -0.95 a 45.47,45.47 0 0 0 5.09,0.31 44.05,44.05 0 0 0 5.1,-0.34 h -0.95 z" class="ar" style="isolation:isolate;fill:url(#am)"/><path id="path270" d="m 456.08,505.35 a 9,9 0 1 1 11.93,-4.45 9,9 0 0 1 -11.93,4.45 z" class="h" style="isolation:isolate"/><path id="path272" d="m 456.24,504.99 a 8.62,8.62 0 1 1 11.42,-4.25 8.6,8.6 0 0 1 -11.42,4.25 z" class="as" style="isolation:isolate;fill:url(#an)"/><path id="path274" d="m 456.89,503.59 a 7.07,7.07 0 1 1 9.37,-3.49 7.07,7.07 0 0 1 -9.37,3.49 z" class="at" style="isolation:isolate;fill:url(#ao)"/><path id="path276" d="m 457.06,503.21 a 6.66,6.66 0 1 1 8.82,-3.28 6.65,6.65 0 0 1 -8.82,3.28 z" class="au" style="isolation:isolate;fill:url(#ap)"/><path id="path278" d="m 460.23,502.28 a 44.44,44.44 0 0 0 0.3,-5.1 45.38,45.38 0 0 0 -0.33,-5.09 v 0.95 -0.95 a 45.47,45.47 0 0 0 -0.31,5.09 47.09,47.09 0 0 0 0.34,5.1 v -1 z" class="l" style="isolation:isolate"/><path id="path280" d="m 465.29,497.15 a 44.16,44.16 0 0 0 -5.09,-0.3 45.44,45.44 0 0 0 -5.1,0.33 h 1 -1 a 45.54,45.54 0 0 0 5.1,0.31 46.77,46.77 0 0 0 5.09,-0.34 h -0.95 z" class="l" style="isolation:isolate"/><path id="path282" d="m 460.06,502.09 a 44.23,44.23 0 0 0 0.3,-5.1 42.76,42.76 0 0 0 -0.33,-5.09 v 1 -1 a 45.56,45.56 0 0 0 -0.29,5.09 42.82,42.82 0 0 0 0.33,5.1 v -1 z" class="av" style="isolation:isolate;fill:url(#aq)"/><path id="path284" d="m 465.13,496.96 a 47.27,47.27 0 0 0 -5.1,-0.3 45.44,45.44 0 0 0 -5.1,0.33 h 1 -1 a 47.27,47.27 0 0 0 5.1,0.3 45.69,45.69 0 0 0 5.1,-0.33 h -1 z" class="aw" style="isolation:isolate;fill:url(#ar)"/><path id="path286" d="m 384.21,593.63 a 9,9 0 1 1 11.94,-4.44 9,9 0 0 1 -11.94,4.44 z" class="h" style="isolation:isolate"/><path id="path288" d="m 384.37,593.28 a 8.62,8.62 0 1 1 11.42,-4.26 8.62,8.62 0 0 1 -11.42,4.26 z" class="ax" style="isolation:isolate;fill:url(#as)"/><path id="path290" d="m 385.02,591.88 a 7.07,7.07 0 1 1 9.37,-3.49 7.09,7.09 0 0 1 -9.37,3.49 z" class="ay" style="isolation:isolate;fill:url(#at)"/><path id="path292" d="m 385.19,591.52 a 6.66,6.66 0 1 1 8.82,-3.29 6.67,6.67 0 0 1 -8.82,3.29 z" class="az" style="isolation:isolate;fill:url(#au)"/><path id="path294" d="m 388.36,590.57 a 44.44,44.44 0 0 0 0.3,-5.1 43,43 0 0 0 -0.33,-5.1 v 1 -1 a 44.44,44.44 0 0 0 -0.3,5.1 45.69,45.69 0 0 0 0.33,5.1 v -1 z" class="l" style="isolation:isolate"/><path id="path296" d="m 393.43,585.44 a 44.44,44.44 0 0 0 -5.1,-0.3 43,43 0 0 0 -5.1,0.33 h 1 -1 a 44.44,44.44 0 0 0 5.1,0.3 45.69,45.69 0 0 0 5.1,-0.33 h -1 z" class="l" style="isolation:isolate"/><path id="path298" d="m 388.2,590.38 a 47.27,47.27 0 0 0 0.3,-5.1 44.29,44.29 0 0 0 -0.34,-5.1 v 1 -1 a 44.44,44.44 0 0 0 -0.3,5.1 45.69,45.69 0 0 0 0.33,5.1 v -1 z" class="ba" style="isolation:isolate;fill:url(#av)"/><path id="path300" d="m 393.26,585.24 a 42.11,42.11 0 0 0 -10.2,0 h 1 -1 a 40.8,40.8 0 0 0 10.2,0 h -1 z" class="bb" style="isolation:isolate;fill:url(#aw)"/><path id="path302" d="m 270.89,644.08 a 9,9 0 1 1 11.94,-4.44 9,9 0 0 1 -11.94,4.44 z" class="h" style="isolation:isolate"/><path id="path304" d="m 271.05,643.73 a 8.62,8.62 0 1 1 11.42,-4.21 8.63,8.63 0 0 1 -11.42,4.21 z" class="bc" style="isolation:isolate;fill:url(#ax)"/><path id="path306" d="m 271.69,642.32 a 7.07,7.07 0 1 1 9.37,-3.49 7.07,7.07 0 0 1 -9.37,3.49 z" class="bd" style="isolation:isolate;fill:url(#ay)"/><path id="path308" d="m 271.89,641.95 a 6.66,6.66 0 1 1 8.83,-3.29 6.66,6.66 0 0 1 -8.83,3.29 z" class="be" style="isolation:isolate;fill:url(#az)"/><path id="path310" d="m 275.04,641.01 a 43.12,43.12 0 0 0 0.29,-5.09 44.14,44.14 0 0 0 -0.32,-5.1 v 1 -1 a 47,47 0 0 0 -0.3,5.1 45.38,45.38 0 0 0 0.33,5.09 v -1 z" class="l" style="isolation:isolate"/><path id="path312" d="m 280.1,635.88 a 47,47 0 0 0 -5.1,-0.3 45.38,45.38 0 0 0 -5.09,0.33 h 1 -1 a 42.84,42.84 0 0 0 5.09,0.31 48.41,48.41 0 0 0 5.1,-0.33 h -0.95 z" class="l" style="isolation:isolate"/><path id="path314" d="m 274.89,640.82 a 47,47 0 0 0 0.3,-5.1 45.38,45.38 0 0 0 -0.33,-5.09 v 1 -1 a 47,47 0 0 0 -0.3,5.09 45.44,45.44 0 0 0 0.33,5.1 v -0.95 z" class="bf" style="isolation:isolate;fill:url(#ba)"/><path id="path316" d="m 279.89,635.69 a 47,47 0 0 0 -5.09,-0.3 45.44,45.44 0 0 0 -5.1,0.33 h 0.95 -0.95 a 44.23,44.23 0 0 0 5.1,0.3 45.38,45.38 0 0 0 5.09,-0.33 h -1 z" class="bg" style="isolation:isolate;fill:url(#bb)"/><path id="path318" d="m 165.89,593.63 a 9,9 0 1 1 11.93,-4.44 9,9 0 0 1 -11.93,4.44 z" class="h" style="isolation:isolate"/><path id="path320" d="m 166.01,593.28 a 8.62,8.62 0 1 1 11.42,-4.26 8.61,8.61 0 0 1 -11.42,4.26 z" class="bh" style="isolation:isolate;fill:url(#bc)"/><path id="path322" d="m 166.66,591.88 a 7.07,7.07 0 1 1 9.37,-3.49 7.07,7.07 0 0 1 -9.37,3.49 z" class="bi" style="isolation:isolate;fill:url(#bd)"/><path id="path324" d="m 166.83,591.52 a 6.66,6.66 0 1 1 8.82,-3.29 6.66,6.66 0 0 1 -8.82,3.29 z" class="bj" style="isolation:isolate;fill:url(#be)"/><path id="path326" d="m 170,590.57 a 44.44,44.44 0 0 0 0.3,-5.1 45.69,45.69 0 0 0 -0.33,-5.1 v 1 -1 a 44.44,44.44 0 0 0 -0.3,5.1 45.69,45.69 0 0 0 0.33,5.1 v -1 z" class="l" style="isolation:isolate"/><path id="path328" d="m 175.06,585.44 a 44.16,44.16 0 0 0 -5.09,-0.3 42.82,42.82 0 0 0 -5.1,0.33 h 1 -1 a 44.44,44.44 0 0 0 5.1,0.3 45.38,45.38 0 0 0 5.09,-0.33 h -0.95 z" class="l" style="isolation:isolate"/><path id="path330" d="m 169.89,590.38 a 45.86,45.86 0 0 0 0.29,-5.1 43,43 0 0 0 -0.33,-5.1 v 1 -1 a 44.44,44.44 0 0 0 -0.3,5.1 43,43 0 0 0 0.33,5.1 v -1 z" class="bk" style="isolation:isolate;fill:url(#bf)"/><path id="path332" d="m 174.89,585.24 a 42.11,42.11 0 0 0 -10.2,0 h 1 -1 a 40.8,40.8 0 0 0 10.2,0 h -1 z" class="bl" style="isolation:isolate;fill:url(#bg)"/><path id="path334" d="m 91.21,505.35 a 9,9 0 1 1 11.94,-4.45 9,9 0 0 1 -11.94,4.45 z" class="h" style="isolation:isolate"/><path id="path336" d="m 91.38,504.99 a 8.61,8.61 0 1 1 11.42,-4.25 8.61,8.61 0 0 1 -11.42,4.25 z" class="bm" style="isolation:isolate;fill:url(#bh)"/><path id="path338" d="m 92.02,503.59 a 7.07,7.07 0 1 1 9.37,-3.49 7.07,7.07 0 0 1 -9.37,3.49 z" class="bn" style="isolation:isolate;fill:url(#bi)"/><path id="path340" d="m 92.19,503.21 a 6.66,6.66 0 1 1 8.82,-3.28 6.66,6.66 0 0 1 -8.82,3.28 z" class="bo" style="isolation:isolate;fill:url(#bj)"/><path id="path342" d="m 95.36,502.28 a 41.93,41.93 0 0 0 0.3,-5.1 42.76,42.76 0 0 0 -0.33,-5.09 v 0.95 -0.95 a 44.16,44.16 0 0 0 -0.3,5.09 45.69,45.69 0 0 0 0.33,5.1 v -1 z" class="l" style="isolation:isolate"/><path id="path344" d="m 100.43,497.15 a 44.23,44.23 0 0 0 -5.1,-0.3 45.38,45.38 0 0 0 -5.09,0.33 h 1 -1 a 45.47,45.47 0 0 0 5.09,0.31 46.83,46.83 0 0 0 5.1,-0.34 h -0.95 z" class="l" style="isolation:isolate"/><path id="path346" d="m 95.2,502.09 a 47,47 0 0 0 0.3,-5.1 44,44 0 0 0 -0.34,-5.09 v 1 -1 a 44.16,44.16 0 0 0 -0.3,5.09 45.44,45.44 0 0 0 0.33,5.1 v -1 z" class="bp" style="isolation:isolate;fill:url(#bk)"/><path id="path348" d="m 100.26,496.96 a 47,47 0 0 0 -5.1,-0.3 45.38,45.38 0 0 0 -5.09,0.33 h 0.95 -0.95 a 47,47 0 0 0 5.09,0.3 45.44,45.44 0 0 0 5.1,-0.33 h -1 z" class="bq" style="isolation:isolate;fill:url(#bl)"/><path id="path350" d="m 38.7,362.83 a 9,9 0 1 1 11.94,-4.44 9,9 0 0 1 -11.94,4.44 z" class="h" style="isolation:isolate"/><path id="path352" d="m 38.89,362.52 a 8.62,8.62 0 1 1 11.42,-4.26 8.62,8.62 0 0 1 -11.42,4.26 z" class="br" style="isolation:isolate;fill:url(#bm)"/><path id="path354" d="m 39.51,361.08 a 7.07,7.07 0 1 1 9.38,-3.49 7.09,7.09 0 0 1 -9.38,3.49 z" class="bs" style="isolation:isolate;fill:url(#bn)"/><path id="path356" d="m 39.68,360.7 a 6.66,6.66 0 1 1 8.82,-3.29 6.67,6.67 0 0 1 -8.82,3.29 z" class="bt" style="isolation:isolate;fill:url(#bo)"/><path id="path358" d="m 42.89,359.77 a 44.44,44.44 0 0 0 0.3,-5.1 43,43 0 0 0 -0.33,-5.1 v 0.95 -0.95 a 44.44,44.44 0 0 0 -0.3,5.1 45.69,45.69 0 0 0 0.33,5.1 v -1 z" class="l" style="isolation:isolate"/><path id="path360" d="m 47.89,354.64 a 42.11,42.11 0 0 0 -10.2,0 h 1 -1 a 44.44,44.44 0 0 0 5.1,0.3 45.69,45.69 0 0 0 5.1,-0.33 h -1 z" class="l" style="isolation:isolate"/><path id="path362" d="m 42.69,359.58 a 45.86,45.86 0 0 0 0.29,-5.1 42.82,42.82 0 0 0 -0.33,-5.1 v 1 -1 a 44.44,44.44 0 0 0 -0.3,5.1 45.69,45.69 0 0 0 0.33,5.1 v -1 z" class="bu" style="isolation:isolate;fill:url(#bp)"/><path id="path364" d="m 47.75,354.44 a 42.11,42.11 0 0 0 -10.2,0 h 1 -1 a 45.77,45.77 0 0 0 5.1,0.31 44.29,44.29 0 0 0 5.1,-0.34 h -1 z" class="bv" style="isolation:isolate;fill:url(#bq)"/><path id="path366" d="m 16.59,219.79 a 9,9 0 1 1 11.93,-4.44 9,9 0 0 1 -11.93,4.44 z" class="h" style="isolation:isolate"/><path id="path368" d="m 16.75,219.44 a 8.62,8.62 0 1 1 11.42,-4.26 8.6,8.6 0 0 1 -11.42,4.26 z" class="bw" style="isolation:isolate;fill:url(#br)"/><path id="path370" d="m 17.4,218.04 a 7.07,7.07 0 1 1 9.36,-3.5 7.08,7.08 0 0 1 -9.36,3.5 z" class="bx" style="isolation:isolate;fill:url(#bs)"/><path id="path372" d="m 17.57,217.66 a 6.66,6.66 0 1 1 8.82,-3.29 6.66,6.66 0 0 1 -8.82,3.29 z" class="by" style="isolation:isolate;fill:url(#bt)"/><path id="path374" d="m 20.74,216.73 a 44.44,44.44 0 0 0 0.3,-5.1 45.44,45.44 0 0 0 -0.33,-5.1 v 1 -1 a 44.23,44.23 0 0 0 -0.3,5.1 45.69,45.69 0 0 0 0.33,5.1 v -1 z" class="l" style="isolation:isolate"/><path id="path376" d="m 25.8,211.59 a 47,47 0 0 0 -5.09,-0.3 45.44,45.44 0 0 0 -5.1,0.33 h 1 -1 a 44.44,44.44 0 0 0 5.1,0.3 45.38,45.38 0 0 0 5.09,-0.33 h -0.91 z" class="l" style="isolation:isolate"/><path id="path378" d="m 20.57,216.52 a 44.51,44.51 0 0 0 0.3,-5.11 42.76,42.76 0 0 0 -0.33,-5.09 v 1 -1 a 45.79,45.79 0 0 0 -0.29,5.09 42.82,42.82 0 0 0 0.33,5.1 v -0.95 z" class="bz" style="isolation:isolate;fill:url(#bu)"/><path id="path380" d="m 25.64,211.4 a 45.86,45.86 0 0 0 -5.1,-0.29 47.18,47.18 0 0 0 -5.1,0.32 h 1 -1 a 44.44,44.44 0 0 0 5.1,0.3 45.69,45.69 0 0 0 5.1,-0.33 h -1 z" class="ca" style="isolation:isolate;fill:url(#bv)"/><path id="path382" d="m 270.08,256.4 c -44,0 -83.95,5.29 -113.54,13.91 v 73.62 c 29.59,8.61 69.55,13.9 113.54,13.9 50.34,0 95.42,-6.93 125.69,-17.84 V 274.25 C 365.5,263.33 320.42,256.4 270.08,256.4 Z" class="cb" style="isolation:isolate"/><path id="path384" d="m 441.11,316.22 -5.15,-10.7 c 0,-0.41 0,-0.82 0,-1.22 0,-12.11 -12.59,-23.27 -33.77,-32.21 v 64.43 c 9.88,-4.17 17.9,-8.82 23.64,-13.83 -1.69,6.79 -7.46,20.52 -12.07,30.17 -7.56,13.81 -10.3,25.84 -10,26.43 0.22,0.38 2.81,-3.6 6.61,-10 8.86,-12.62 25.64,-36.71 29,-42.85 3.88,-7.01 1.74,-10.22 1.74,-10.22 z" class="cb" style="isolation:isolate"/><path id="path386" d="m 107.44,305.02 a 18.48,18.48 0 0 0 1.37,6.89 l -3.08,5.49 c 0,0 -2.48,3.21 1.88,10 3.84,6 23.09,29.34 33.24,41.58 4.37,6.27 7.32,10.14 7.58,9.76 0.41,-0.59 -2.71,-12.37 -11.37,-25.81 a 242.08,242.08 0 0 1 -11.77,-23.84 c 8.09,5.12 18.67,9.77 31.25,13.76 v -75.64 c -30.31,9.63 -49.1,23.02 -49.1,37.81 z" class="cb" style="isolation:isolate"/><path id="path388" d="m 471.05,316.16 -33.89,-25 c -0.32,-1.11 -0.64,-2.22 -1,-3.32 l 11.14,-16.13 a 6,6 0 0 0 0.62,-5.64 5.66,5.66 0 0 0 -4.26,-3.53 l -18.77,-3.16 c -0.73,-1.49 -1.49,-2.95 -2.26,-4.41 l 7.91,-18.1 a 6,6 0 0 0 -0.44,-5.67 5.48,5.48 0 0 0 -4.84,-2.58 l -19.1,0.69 q -1.49,-1.94 -3,-3.82 l 4.39,-19.4 a 6,6 0 0 0 -1.49,-5.47 5.42,5.42 0 0 0 -5.24,-1.55 l -18.6,4.57 c -1.21,-1.06 -2.43,-2.12 -3.67,-3.15 l 0.67,-19.92 a 5.88,5.88 0 0 0 -2.49,-5.05 5.36,5.36 0 0 0 -5.42,-0.46 l -17.42,8.25 c -1.4,-0.8 -2.8,-1.59 -4.23,-2.36 l -3.06,-19.64 a 5.81,5.81 0 0 0 -3.39,-4.45 5.4,5.4 0 0 0 -5.4,0.66 l -15.48,11.61 c -1.52,-0.5 -3.05,-1 -4.6,-1.45 l -6.67,-18.62 a 5.63,5.63 0 0 0 -4.15,-3.68 5.47,5.47 0 0 0 -5.18,1.74 l -13,14.57 q -2.37,-0.27 -4.74,-0.48 l -10,-16.95 a 5.48,5.48 0 0 0 -9.51,0 l -10.06,16.95 q -2.39,0.21 -4.74,0.48 l -13,-14.57 a 5.47,5.47 0 0 0 -5.18,-1.74 5.62,5.62 0 0 0 -4.14,3.68 l -6.68,18.62 c -1.55,0.46 -3.08,1 -4.6,1.45 l -15.57,-11.61 a 5.41,5.41 0 0 0 -5.41,-0.66 5.84,5.84 0 0 0 -3.38,4.45 l -3.07,19.64 c -1.42,0.77 -2.82,1.56 -4.22,2.36 l -17.36,-8.25 a 5.38,5.38 0 0 0 -5.43,0.46 5.9,5.9 0 0 0 -2.48,5.05 l 0.67,19.92 c -1.24,1 -2.46,2.09 -3.67,3.15 l -18.61,-4.57 a 5.45,5.45 0 0 0 -5.24,1.55 6,6 0 0 0 -1.49,5.47 l 4.38,19.4 c -1,1.26 -2,2.53 -3,3.82 l -19.11,-0.69 a 5.53,5.53 0 0 0 -4.84,2.58 6,6 0 0 0 -0.44,5.67 l 7.91,18.1 c -0.77,1.46 -1.53,2.92 -2.27,4.41 l -18.82,3.19 a 5.67,5.67 0 0 0 -4.27,3.53 6.05,6.05 0 0 0 0.63,5.64 l 11.14,16.13 c -0.09,0.28 -0.17,0.57 -0.25,0.86 l -31.49,33.44 c 0,0 -4.82,3.78 2.2,12.66 6.2,7.84 38,38.92 54.8,55.2 7.09,8.26 11.95,13.38 12.46,12.94 0.8,-0.71 -3.41,-15.74 -17.38,-33.39 -10.77,-15.83 -24.75,-40.17 -21.47,-43 a 32.12,32.12 0 0 1 11.21,-8.14 c 0.27,0.22 -0.29,-0.21 0,0 v 0 c 0,0 157.88,72.83 304.32,1.23 v 0 c 16.73,-3 26.86,6 26.86,6 3.49,2 -5.55,27.05 -13,43.62 -10.11,18.82 -11.6,33.5 -10.74,34 0.54,0.33 4.22,-5.27 9.47,-14.19 12.95,-18.05 37.44,-52.45 41.92,-60.81 5.09,-9.48 0.01,-12.13 0.01,-12.13 z" class="cc" style="isolation:isolate"/><path id="path390" d="m 216.74,362.89 c -0.6,-0.52 -0.92,-0.82 -0.92,-0.82 l 51.72,-4.24 c -42.19,-55.65 -76,-11.32 -79.58,-6.36 v 11.42 z" style="isolation:isolate"/><path id="path392" d="m 324.42,362.29 c 0.6,-0.52 0.92,-0.82 0.92,-0.82 l -49.7,-3.64 c 42.21,-57.93 74,-11.92 77.56,-7 v 11.42 z" style="isolation:isolate"/><path id="path394" d="m 403.89,307.04 c 0,0 -5.65,22.51 -40.8,46.16 l -9.88,2.32 c 0,0 -31.88,-58.14 -77.05,7.38 0,0 14.07,-8.2 51.81,1.78 0,0 -17.36,26.58 -52.33,25.76 0,0 33.52,40.21 84.51,-17.87 0,0 53.92,-20.85 58.29,-65.52 z" class="cc" style="isolation:isolate"/><path id="path396" d="m 299.12,278.2 c 0,0 15.78,-17.27 31.56,0 0,0 12.4,23 0,34.56 0,0 -20.29,16.12 -31.56,0 0,0 -13.52,-12.67 0,-34.56 z" style="isolation:isolate"/><path id="path398" d="m 317.39,284.61 c 0,6.73 -4,12.18 -8.86,12.18 -4.86,0 -8.85,-5.45 -8.85,-12.18 0,-6.73 4,-12.18 8.85,-12.18 4.85,0 8.86,5.46 8.86,12.18 z" class="g" style="isolation:isolate"/><path id="path400" d="m 228.7,273.52 c 0,0 27.07,-12 34.46,14.76 0,0 7.73,31.18 -22.23,32.93 -0.04,-0.03 -38.21,-7.38 -12.23,-47.69 z" style="isolation:isolate"/><path id="path402" d="m 242.3,285.05 c 0,6.94 -4.09,12.57 -9.14,12.57 -5.05,0 -9.13,-5.63 -9.13,-12.57 0,-6.94 4.09,-12.53 9.13,-12.53 5.04,0 9.14,5.6 9.14,12.53 z" class="g" style="isolation:isolate"/><path id="path404" d="m 213.5,367.09 c 33.32,-4.2 52.57,-4.59 52.57,-4.59 -44.57,-58.81 -80.74,-5.57 -80.74,-5.57 -9.07,-3.24 -18.31,-15.82 -25.21,-27.42 l -27.66,-8.2 c 31.88,54.11 55.62,54.94 55.62,54.94 49.42,63.34 72.81,12.44 72.81,12.44 -27.73,-3.17 -47.39,-21.6 -47.39,-21.6 z" class="cc" style="isolation:isolate"/><metadata id="metadata834"/></svg>